# xmcd
#
# Track frame offsets:
#	183
#	21938
#	35243
#	49038
#	68265
#	88660
#	102270
#	122283
#	135440
#	156953
#	184778
#	211403
#	231320
#	249728
#	262925
#
# Disc length: 3718 seconds
#
# Revision: 1
# Processed by: cddbd v1.4PL0 Copyright (c) Steve Scherf et al.
# Submitted via: audiograbber 1.81.03
#
DISCID=c70e840f
DTITLE=Muddy Waters - Live
DYEAR=2000
DGENRE=Blues
TTITLE0=I Got My Brand On You
TTITLE1=I'm Your Hoochie Coochie Man
TTITLE2=Baby, Please Don't Go
TTITLE3=Soon Forgotten
TTITLE4=Tiger In Your Tank
TTITLE5=I Feel So Good
TTITLE6=I've Got My Mojo Working (Part 1)
TTITLE7=I've Got My Mojo Working (Part 2)
TTITLE8=Goodbye Newport Blues
TTITLE9=Long Distance Call
TTITLE10=The Same Thing
TTITLE11=Wee Wee Baby
TTITLE12=Sitting and Thinking
TTITLE13=Clouds In My Heart
TTITLE14=19 Years Old
EXTD=
EXTT0=
EXTT1=
EXTT2=
EXTT3=
EXTT4=
EXTT5=
EXTT6=
EXTT7=
EXTT8=
EXTT9=
EXTT10=
EXTT11=
EXTT12=
EXTT13=
EXTT14=
PLAYORDER=
